<?xml version="1.0" encoding="UTF-8"?>
<svg id="_レイヤー_2" data-name="レイヤー 2" xmlns="http://www.w3.org/2000/svg" viewBox="0 0 357.23 76.34">
  <defs>
    <style>
      .cls-1 {
        fill: #231815;
      }
    </style>
  </defs>
  <g id="_レイヤー_1-2" data-name="レイヤー 1">
    <g>
      <path class="cls-1" d="M274.85,35.61c0,6.5-5.29,11.79-11.79,11.79s-11.79-5.29-11.79-11.79V14.43h-8v21.18c0,10.91,8.88,19.79,19.79,19.79,4.42,0,8.49-1.47,11.79-3.93v3.33h8V14.43h-8v21.18Z"/>
      <polygon class="cls-1" points="175.6 17.78 167.6 17.78 167.6 27.97 157.41 27.97 157.41 35.97 167.6 35.97 167.6 46.16 175.6 46.16 175.6 35.97 185.79 35.97 185.79 27.97 175.6 27.97 175.6 17.78"/>
      <rect class="cls-1" x="347.23" y="15.58" width="8" height="39.22"/>
      <path class="cls-1" d="M357.11,4.82c-.08-.38-.19-.76-.34-1.12-.15-.36-.34-.71-.55-1.03-.22-.33-.47-.64-.75-.92-.28-.27-.58-.52-.91-.74-.33-.22-.67-.4-1.04-.55-.36-.15-.74-.27-1.12-.35-.77-.15-1.57-.15-2.34,0-.39.08-.77.2-1.13.35s-.71.33-1.03.55c-.33.22-.64.47-.92.74-.27.28-.52.59-.74.92-.22.32-.4.67-.55,1.03-.15.36-.27.74-.34,1.12-.08.39-.12.79-.12,1.18,0,1.58.64,3.12,1.75,4.24.28.28.59.53.92.75.32.21.67.4,1.03.55s.74.26,1.13.34c.38.08.78.12,1.17.12s.78-.04,1.17-.12c.38-.08.76-.19,1.12-.34.37-.15.71-.34,1.04-.55.33-.22.63-.47.91-.75,1.12-1.12,1.76-2.66,1.76-4.24,0-.39-.04-.79-.12-1.18Z"/>
      <path class="cls-1" d="M77.56,11.58c-5.75,0-11.16,2.24-15.23,6.31h0c-4.07,4.07-6.31,9.48-6.31,15.23,0,11.88,9.66,21.54,21.54,21.54,5.75,0,11.16-2.24,15.23-6.31l-5.66-5.66c-2.56,2.56-5.96,3.97-9.58,3.97-6.08,0-11.23-4.02-12.94-9.54h34.48v-4c0-11.88-9.66-21.54-21.54-21.54ZM64.62,29.12c.64-2.08,1.78-3.99,3.37-5.58,2.56-2.56,5.96-3.97,9.58-3.97,6.08,0,11.23,4.02,12.94,9.54h-25.88Z"/>
      <path class="cls-1" d="M138.85,16.39c-3.7-3-8.41-4.81-13.54-4.81-11.88,0-21.54,9.66-21.54,21.54s9.66,21.54,21.54,21.54c5.13,0,9.84-1.81,13.54-4.81v4.95c0,7.47-6.08,13.54-13.54,13.54-3.62,0-7.02-1.41-9.58-3.97l-5.66,5.66c4.07,4.07,9.48,6.31,15.23,6.31,11.22,0,20.46-8.63,21.44-19.6h.1V14.48h-8v1.91ZM125.31,46.66c-7.47,0-13.54-6.08-13.54-13.54s6.08-13.54,13.54-13.54,13.54,6.08,13.54,13.54-6.08,13.54-13.54,13.54Z"/>
      <path class="cls-1" d="M229.32,16.39c-3.7-3-8.41-4.81-13.54-4.81-11.88,0-21.54,9.66-21.54,21.54s9.66,21.54,21.54,21.54c5.13,0,9.84-1.81,13.54-4.81v4.95c0,7.47-6.08,13.54-13.54,13.54-3.62,0-7.02-1.41-9.58-3.97l-5.66,5.66c4.07,4.07,9.48,6.31,15.23,6.31,11.22,0,20.46-8.63,21.44-19.6h.1V14.48h-8v1.91ZM215.78,46.66c-7.47,0-13.54-6.08-13.54-13.54s6.08-13.54,13.54-13.54,13.54,6.08,13.54,13.54-6.08,13.54-13.54,13.54Z"/>
      <path class="cls-1" d="M325.69,12.5c-4.28,0-8.13,1.83-10.84,4.74-2.71-2.91-6.56-4.74-10.84-4.74-2.65,0-5.14.71-7.29,1.93h-7.55v40.37h8v-27.46c0-3.77,3.07-6.84,6.84-6.84s6.84,3.07,6.84,6.84v27.38h8v-27.38c0-3.77,3.07-6.84,6.84-6.84s6.84,3.07,6.84,6.84v27.38h8v-27.38c0-8.18-6.66-14.84-14.84-14.84Z"/>
      <path class="cls-1" d="M36.51,12.5c-4.28,0-8.13,1.83-10.84,4.74-2.71-2.91-6.56-4.74-10.84-4.74-2.65,0-5.14.71-7.29,1.93H0v40.37h8v-27.46c0-3.77,3.07-6.84,6.84-6.84s6.84,3.07,6.84,6.84v27.38h8v-27.38c0-3.77,3.07-6.84,6.84-6.84s6.84,3.07,6.84,6.84v27.38h8v-27.38c0-8.18-6.66-14.84-14.84-14.84Z"/>
    </g>
  </g>
</svg>